<?xml version="1.0" encoding="UTF-8"?>
<svg width="256px" height="256px" viewBox="0 0 256 256" version="1.1" xmlns="http://www.w3.org/2000/svg" xmlns:xlink="http://www.w3.org/1999/xlink">
    <!-- Generator: Sketch 49.3 (51167) - http://www.bohemiancoding.com/sketch -->
    <title>Untitled 2</title>
    <desc>Created with Sketch.</desc>
    <defs></defs>
    <g id="Page-1" stroke="none" stroke-width="1" fill="none" fill-rule="evenodd">
        <g id="icon" fill-rule="nonzero">
            <rect id="Rectangle-2-Copy-4" fill="#646464" x="0" y="0" width="256" height="256" rx="72"></rect>
            <path d="M157.866667,102.091146 C157.866667,118.278299 157.866667,155.359028 157.866667,187.733333 C157.866667,190.089748 155.956415,192 153.6,192 L137.244445,192 C134.88803,192 132.977778,190.089748 132.977778,187.733333 L132.977778,93.3333333 C132.977778,86.55864 127.40621,81.0666667 120.533333,81.0666667 C113.660457,81.0666667 108.088889,86.55864 108.088889,93.3333333 L107.733333,140.8 L107.733333,155.11943 C107.733333,175.427442 91.2574123,191.890339 70.9333333,191.890339 C50.6092545,191.890339 34.1333333,175.427442 34.1333333,155.11943 L34.1333333,153.490339 C34.1333333,151.133924 36.0435851,149.223673 38.4,149.223673 L54.4,149.223673 C56.7564149,149.223673 58.6666667,151.133924 58.6666667,153.490339 L58.6666667,155.11943 C58.6666667,161.888767 64.15864,167.3764 70.9333333,167.3764 C77.7080267,167.3764 83.2,161.888767 83.2,155.11943 L83.2,140.690339 L83.2,93.3333333 C83.2,73.0092544 99.9147029,56.5333333 120.533333,56.5333333 C133.421489,56.5333333 144.784316,62.9707503 151.493081,72.7615488 C156.11816,69.3657515 163.104427,67.2 170.666667,67.2 C190.457412,67.2 206.933333,83.6751189 206.933333,103.466667 L206.933333,187.733333 C206.933333,190.089748 205.023082,192 202.666667,192 L186.666667,192 C184.310252,192 182.4,190.089748 182.4,187.733333 L182.4,103.466667 C182.4,97.2238453 176.908027,91.7321387 170.666667,91.7333333 C163.35864,91.7321387 157.866667,97.2238453 157.866667,103.466667 L157.866667,102.091146 Z" id="Combined-Shape-Copy" fill="#FFFFFF"></path>
        </g>
    </g>
</svg>