<svg xmlns="http://www.w3.org/2000/svg" xmlns:xlink="http://www.w3.org/1999/xlink" preserveAspectRatio="xMidYMid" width="120.03" height="120" viewBox="0 0 120.03 120">
  <defs>
    <style>
      .cls-1 {
        fill: #23c687;
        fill-rule: evenodd;
      }
    </style>
  </defs>
  <path d="M102.000,46.500 C102.000,47.872 102.145,49.210 102.415,50.502 C102.345,50.487 102.276,50.469 102.206,50.453 C103.369,54.774 104.000,59.312 104.000,64.000 C104.000,92.719 80.719,116.000 52.000,116.000 C42.190,116.000 33.017,113.280 25.187,108.559 C26.579,85.171 36.935,66.547 52.924,51.017 C53.585,50.380 54.000,49.490 54.000,48.500 C54.000,46.567 52.433,45.000 50.500,45.000 C49.106,45.000 47.913,45.821 47.350,46.999 C31.631,62.641 21.121,81.146 18.618,103.861 C7.240,94.322 -0.000,80.009 -0.000,64.000 C-0.000,57.397 1.243,51.088 3.488,45.277 C12.342,18.960 37.197,-0.000 66.500,-0.000 C88.464,-0.000 107.925,10.657 120.029,27.074 C109.949,27.829 102.000,36.227 102.000,46.500 ZM25.025,113.000 L24.949,113.000 C21.792,113.000 21.500,120.000 21.500,120.000 C21.500,120.000 18.050,115.753 18.050,113.000 L18.038,113.000 C18.084,109.877 18.290,106.837 18.618,103.861 C20.679,105.589 22.872,107.163 25.187,108.559 C25.100,110.021 25.041,111.499 25.025,113.000 Z" class="cls-1"/>
</svg>
