<?xml version="1.0" standalone="no"?><!DOCTYPE svg PUBLIC "-//W3C//DTD SVG 1.1//EN" "http://www.w3.org/Graphics/SVG/1.1/DTD/svg11.dtd"><svg t="1494852508558" class="icon" style="" viewBox="0 0 1024 1024" version="1.1" xmlns="http://www.w3.org/2000/svg" p-id="9814" xmlns:xlink="http://www.w3.org/1999/xlink" width="128" height="128"><defs><style type="text/css"></style></defs><path d="M176.704 819.456c4.864-22.784 11.072-47.04 19.392-73.344 25.6-81.088 63.744-156.544 112.192-223.808 60.992-83.84 139.968-155.2 234.176-210.624 4.16-2.752 9.024-4.864 13.824-4.864 10.432 0 19.456 4.864 25.024 14.592 7.552 13.184 3.392 31.104-9.728 38.08-158.656 95.616-266.752 231.488-320.768 403.84-10.368 33.984-18.048 65.792-22.848 93.568 6.848 4.224 13.824 7.616 19.392 9.536 376.896 143.552 572.864-153.664 577.728-377.408 4.864-224.448 185.024-295.808 185.024-295.808S896.512 0 565.312 0C176 22.144 28.416 290.944 14.656 478.656 4.928 618.624 97.728 750.912 176.704 819.456M159.424 998.272c1.344 15.168 15.232 27.008 30.464 25.536 15.936-0.704 27.712-13.76 27.008-29.696-0.704-1.408-4.16-56.128 11.072-137.216-15.936-9.024-33.344-21.568-51.264-37.504C155.264 921.344 159.424 994.112 159.424 998.272" p-id="9815" fill="#ffffff"></path></svg>