<?xml version="1.0" standalone="no"?><!DOCTYPE svg PUBLIC "-//W3C//DTD SVG 1.1//EN" "http://www.w3.org/Graphics/SVG/1.1/DTD/svg11.dtd"><svg t="1526216165899" class="icon" style="" viewBox="0 0 1024 1024" version="1.1" xmlns="http://www.w3.org/2000/svg" p-id="2250" xmlns:xlink="http://www.w3.org/1999/xlink" width="256" height="256"><defs><style type="text/css"></style></defs><path d="M492.8 768c-6.4 0-12.8 0-19.2-6.4l-102.4-96c-12.8-12.8-12.8-32 0-44.8 12.8-12.8 32-12.8 44.8 0L512 710.4c12.8 12.8 12.8 32 0 44.8C512 761.6 499.2 768 492.8 768z" p-id="2251" fill="#646464"></path><path d="M492.8 768c-6.4 0-19.2-6.4-25.6-12.8-12.8-12.8-12.8-32 0-44.8l204.8-198.4c12.8-12.8 32-12.8 44.8 0 12.8 12.8 12.8 32 0 44.8L512 761.6C505.6 768 499.2 768 492.8 768z" p-id="2252" fill="#646464"></path><path d="M832 1024 256 1024c-70.4 0-128-70.4-128-153.6L128 288c0-83.2 57.6-153.6 128-153.6l128 0C396.8 57.6 467.2 0 544 0s147.2 57.6 160 134.4l128 0c70.4 0 128 70.4 128 153.6l0 582.4C960 953.6 902.4 1024 832 1024zM256 198.4c-38.4 0-64 44.8-64 89.6l0 582.4C192 915.2 224 960 256 960L832 960c38.4 0 64-44.8 64-89.6L896 288c0-51.2-32-89.6-64-89.6l-160 0c-6.4 0-19.2-6.4-25.6-12.8C640 179.2 640 172.8 640 166.4c0 0 0-6.4 0-6.4C640 108.8 595.2 64 544 64S448 108.8 448 160c0 0 0 0 0 0 0 6.4 0 19.2-6.4 25.6C435.2 192 422.4 198.4 416 198.4L256 198.4z" p-id="2253" fill="#646464"></path><path d="M736 352l-384 0C332.8 352 320 339.2 320 320L320 192c0-19.2 12.8-32 32-32S384 172.8 384 192l0 96 320 0L704 192c0-19.2 12.8-32 32-32S768 172.8 768 192l0 128C768 339.2 755.2 352 736 352z" p-id="2254" fill="#646464"></path></svg>