<?xml version="1.0" encoding="UTF-8"?>
<svg width="256px" height="256px" viewBox="0 0 256 256" version="1.1" xmlns="http://www.w3.org/2000/svg" xmlns:xlink="http://www.w3.org/1999/xlink">
    <!-- Generator: Sketch 49.3 (51167) - http://www.bohemiancoding.com/sketch -->
    <title>Untitled 2</title>
    <desc>Created with Sketch.</desc>
    <defs></defs>
    <g id="Page-1" stroke="none" stroke-width="1" fill="none" fill-rule="evenodd">
        <g id="钱" transform="translate(23.000000, 0.000000)" fill="#646464" fill-rule="nonzero">
            <path d="M199.222346,161.923575 C186.865698,128.972514 152.741899,93.0753073 145.505251,86.1246927 L145.247821,85.8672626 C144.389721,85.0949721 143.474413,84.2940782 142.444693,83.464581 C141.672402,82.6350838 140.957318,81.92 140.299441,81.2335196 C142.501899,83.0641341 145.305028,84.2082682 148.422793,84.2082682 C153.399777,84.2082682 157.661676,81.3193296 159.778324,77.1718436 C167.186592,78.6592179 186.608268,82.892514 189.153966,93.5329609 C189.754637,96.0500559 192.014302,97.7376536 194.502793,97.7376536 C194.931844,97.7376536 195.360894,97.6804469 195.789944,97.5946369 C198.736089,96.8795531 200.566704,93.9334078 199.85162,90.9586592 C196.648045,77.6581006 181.945922,71.5083799 170.762011,68.4478212 C176.053631,63.4994413 180.801788,57.2067039 181.345251,52.8303911 C181.717095,49.9128492 179.686257,47.3957542 176.768715,46.9094972 C173.851173,46.4232402 171.048045,48.5112849 170.447374,51.4002235 C169.846704,54.2605587 162.953296,61.2969832 158.920223,64.1859218 C156.603352,60.867933 152.770503,58.6654749 148.422793,58.6654749 C144.589944,58.6654749 141.186145,60.381676 138.84067,63.0703911 C140.185028,61.0681564 141.615196,59.6951955 142.330279,59.0659218 C142.84514,58.6082682 143.817654,57.864581 145.076201,56.8634637 C159.034637,45.8797765 172.335196,36.6694972 175.081117,28.1743017 C175.853408,25.8288268 176.368268,24.3128492 176.740112,23.3117318 C177.283575,21.7671508 178.885363,17.2478212 174.76648,15.1597765 C173.936983,14.2730726 172.449609,13.2147486 170.075531,13.2147486 C168.216313,13.2147486 166.357095,13.8440223 163.983017,14.6449162 C160.035754,15.9892737 154.543911,17.5052514 150.997095,16.0178771 C148.022346,14.7593296 145.162011,12.7284916 142.158659,10.5832402 C136.552402,6.6073743 130.202458,2.05944134 121.306816,1.4301676 C114.241788,0.915307263 108.492514,3.31798883 103.00067,5.63486034 C98.1094972,7.69430168 93.5043575,9.63932961 87.2974302,9.63932961 L87.2688268,9.63932961 C81.2335196,9.5249162 74.6547486,8.63821229 68.8482682,7.86592179 C63.3850279,7.12223464 58.6654749,6.49296089 54.8612291,6.49296089 C53.2594413,6.49296089 51.9150838,6.6073743 51.0283799,6.80759777 C50.4563128,6.34994413 49.5696089,5.26301676 48.4254749,3.57541899 C47.5387709,2.2596648 46.1658101,0.257430168 43.3626816,0.257430168 C41.7894972,0.257430168 40.2449162,1.02972067 39.3010056,2.28826816 C37.6420112,4.49072626 37.7278212,4.86256983 40.5023464,14.6449162 L40.9027933,16.0464804 C40.9886034,16.3611173 41.0744134,16.9331844 41.2174302,17.7054749 C42.1899441,23.1973184 44.5068156,33.9521788 50.6565363,40.6453631 C51.5146369,41.7322905 52.4585475,42.9050279 53.4882682,44.1635754 C58.2078212,49.9700559 64.2717318,57.4641341 67.3036872,65.4730726 C65.8163128,65.7877095 64.3289385,66.0165363 62.8415642,66.3597765 C60.1242458,66.9604469 58.4080447,69.6777654 59.0087151,72.3950838 C59.6093855,75.1124022 62.3267039,76.8 65.0440223,76.1993296 C66.4169832,75.8846927 67.7899441,75.6558659 69.162905,75.3984358 C69.077095,78.0299441 68.5050279,80.6900559 67.2750838,83.2929609 C66.5027933,84.4084916 65.7305028,85.2951955 64.9868156,85.9244693 C39.4440223,107.548603 21.2522905,134.550168 10.9836872,161.980782 C0.800893855,189.125363 0.0858100559,200.252067 0.228826816,209.290726 C0.429050279,221.675978 0.943910615,254.541229 59.5235754,255.39933 C111.781899,256.17162 118.417877,255.971397 150.911285,255.599553 C209.40514,254.970279 209.891397,221.761788 210.09162,209.262123 C210.120223,200.166257 209.40514,189.039553 199.222346,161.923575 Z M61.2397765,39.8730726 C60.2672626,38.6717318 59.3519553,37.5275978 58.2650279,36.1832402 C54.1747486,31.7211173 52.1439106,21.7671508 51.2572067,16.9331844 C51.6576536,16.904581 52.0867039,16.8473743 52.4871508,16.7615642 C52.8589944,16.6757542 53.5454749,16.5899441 54.775419,16.5899441 C57.9217877,16.5899441 62.5269274,17.2192179 67.4181006,17.877095 C73.4820112,18.6779888 80.375419,19.6218994 86.9827933,19.7363128 L87.6978771,19.7363128 C95.4493855,19.7363128 101.513296,17.1906145 106.862123,14.9309497 C111.696089,12.9001117 115.757765,11.1553073 120.505922,11.4985475 C126.569832,11.9275978 131.260782,15.2741899 136.237765,18.7924022 C139.555754,21.1664804 142.988156,23.5977654 146.992626,25.2853631 C152.770503,27.7452514 160.436201,26.4008939 165.527598,24.7418994 C165.498994,24.8277095 165.470391,24.9421229 165.441788,25.027933 C163.983017,29.5186592 155.030168,36.1260335 138.812067,48.9117318 C137.410503,50.0272626 136.352179,50.8567598 135.780112,51.3430168 C134.092514,52.7731844 129.973631,55.9195531 127.57095,62.012067 C112.783017,59.6951955 95.4779888,59.9526257 77.3148603,62.7557542 C73.8538547,52.4585475 66.5313966,46.3946369 61.2397765,39.8730726 Z M137.782346,78.5448045 C136.895642,77.4578771 136.352179,76.4567598 136.094749,75.0265922 C136.123352,75.0265922 136.151955,75.0551955 136.209162,75.0551955 C136.552402,76.313743 137.067263,77.4864804 137.782346,78.5448045 Z M199.880223,209.061899 C199.68,221.590168 199.33676,244.015196 150.682458,244.558659 C122.136313,244.873296 118.503687,245.24514 59.5521788,244.358436 C10.7548603,243.643352 10.3830168,221.475754 10.2113966,209.061899 C10.0969832,200.967151 10.7548603,190.927374 20.3369832,165.441788 C30.0049162,139.641564 47.1955307,114.041564 71.4225698,93.5329609 C72.9099441,92.2744134 74.3687151,90.615419 75.741676,88.584581 C75.8560894,88.4129609 75.9705028,88.2127374 76.0849162,88.012514 C78.5448045,83.0927374 79.4315084,78.2301676 79.2312849,73.5392179 C96.0786592,70.9935196 112.239553,70.7360894 125.826145,72.8241341 C125.826145,73.224581 125.768939,73.5678212 125.797542,73.9682682 C126.283799,81.5195531 129.430168,84.6373184 132.748156,87.9267039 C133.520447,88.6989944 134.349944,89.5284916 135.265251,90.5010056 C135.436872,90.6726257 135.608492,90.8442458 135.780112,90.9872626 C136.809832,91.8453631 137.753743,92.646257 138.49743,93.3327374 C142.501899,97.1369832 177.912849,133.663464 189.811844,165.441788 C199.33676,190.955978 199.994637,200.967151 199.880223,209.061899 Z M107.52,160.836648 L107.52,132.748156 C113.898547,134.063911 119.647821,137.067263 124.281564,142.158659 L130.688715,134.349944 C124.825028,128.25743 117.15933,124.167151 107.52,122.908603 L107.52,110.923799 L101.942346,110.923799 L101.942346,111.038212 L97.0511732,111.038212 L97.0511732,122.45095 C81.6625698,123.595084 70.9649162,132.976983 70.9649162,146.163128 C70.9649162,161.923575 83.9794413,166.299888 97.0511732,169.875307 L97.0511732,201.024358 C86.9255866,199.880223 79.5459218,194.73162 74.683352,188.982346 L68.2762011,197.191508 C74.683352,204.485363 84.1224581,209.891397 97.0511732,210.663687 L97.0511732,222.162235 L105.489162,222.162235 L105.489162,222.076425 L107.52,222.076425 L107.52,210.34905 C125.768939,208.232402 132.633743,196.762458 132.633743,185.635754 C132.633743,169.703687 120.105475,164.52648 107.52,160.836648 Z M97.0511732,158.20514 C88.3271508,155.630838 81.9772067,152.570279 81.9772067,145.505251 C81.9772067,138.06838 87.9553073,132.69095 97.0511732,132.033073 L97.0511732,158.20514 Z M107.52,200.795531 L107.52,172.592626 C115.528939,175.195531 121.592849,178.742346 121.592849,186.436648 C121.621453,192.185922 118.074637,198.936313 107.52,200.795531 Z" id="Shape"></path>
        </g>
    </g>
</svg>