<?xml version="1.0" encoding="UTF-8"?>
<svg width="238px" height="256px" viewBox="0 0 238 256" version="1.1" xmlns="http://www.w3.org/2000/svg" xmlns:xlink="http://www.w3.org/1999/xlink">
    <!-- Generator: Sketch 49.3 (51167) - http://www.bohemiancoding.com/sketch -->
    <title>Untitled</title>
    <desc>Created with Sketch.</desc>
    <defs></defs>
    <g id="Page-1" stroke="none" stroke-width="1" fill="none" fill-rule="evenodd">
        <g id="签到" fill="#646464" fill-rule="nonzero">
            <path d="M66.3104,49.0767059 C71.4409412,49.0767059 75.7221647,44.7954824 75.7221647,39.6649412 L75.7221647,37.4445176 L56.8986353,37.4445176 L56.8986353,39.6649412 C56.8986353,44.7954824 61.1798588,49.0767059 66.3104,49.0767059 Z M75.7221647,9.54729412 C75.7221647,4.41675294 71.4409412,0.135529412 66.3104,0.135529412 C61.1798588,0.135529412 56.8986353,4.41675294 56.8986353,9.54729412 L56.8986353,18.6209882 L75.7221647,18.6209882 L75.7221647,9.54729412 Z M188.675012,18.6206118 L188.675012,9.54691765 C188.675012,4.41637647 184.393788,0.135152941 179.263247,0.135152941 C174.132706,0.135152941 169.851482,4.41637647 169.851482,9.54691765 L169.851482,18.6206118 L188.675012,18.6206118 Z M179.263247,49.0767059 C184.393788,49.0767059 188.675012,44.7954824 188.675012,39.6649412 L188.675012,37.4445176 L169.851482,37.4445176 L169.851482,39.6649412 C169.851482,44.7954824 174.132706,49.0767059 179.263247,49.0767059 Z M164.096,112.268424 L126.994824,149.369224 L108.905412,167.458635 L86.2780235,144.831247 C81.2016941,139.754918 72.7201882,139.754918 67.6438588,144.831247 C62.5675294,149.907576 62.5675294,158.389459 67.6438588,163.465788 L99.5885176,195.410447 C104.664847,200.486776 113.146353,200.486776 118.223059,195.410447 C118.326588,195.306918 118.424847,195.199247 118.524235,195.093082 C118.630776,194.993694 118.737694,194.895812 118.8416,194.791906 L155.942776,157.690729 L182.730918,130.902588 C187.807247,125.826259 187.807247,117.344376 182.730918,112.268424 C177.653835,107.192094 169.172329,107.192094 164.096,112.268424 Z" id="Shape"></path>
            <path d="M230.915765,26.3224471 C226.738447,21.5642353 220.763859,19.4390588 214.6752,18.7019294 C211.345318,18.2987294 207.811012,18.6209882 204.471341,18.6209882 L24.8764235,18.6209882 C13.6466824,18.6209882 3.09044706,26.8352 0.955482353,37.9949176 C0.126494118,42.3288471 0.3968,46.8325647 0.3968,51.2210824 L0.3968,231.291106 C0.3968,242.274635 7.86334118,251.781271 18.2806588,254.901082 C22.7207529,256.230776 27.9043765,255.797835 32.5082353,255.797835 L213.022118,255.797835 C217.201694,255.797835 221.014588,254.687624 224.729224,252.854965 C230.324329,250.094306 233.889506,244.925365 236.195388,239.343812 C237.154635,237.022494 237.481788,234.354824 237.557835,231.846776 C237.567247,231.674353 237.573271,231.501553 237.573271,231.327247 L237.573271,198.309271 L237.573271,127.811765 L237.573271,62.6684235 L237.573271,45.4900706 L237.573271,43.0919529 C237.573647,36.7548235 235.044141,31.0249412 230.915765,26.3224471 Z M218.293835,40.7917176 C218.033694,40.256 217.930541,40.0293647 217.916612,39.9872 L217.929788,40.0018824 C217.981741,40.0952471 218.162071,40.4645647 218.293835,40.7917176 Z M217.929788,40.0015059 C217.925198,39.9966631 217.920802,39.9916395 217.916612,39.9864471 C217.912094,39.9732706 217.917365,39.9796706 217.929788,40.0015059 Z M25.5823059,37.4441412 L212.582776,37.4441412 C213.0176,37.4441412 213.450165,37.4528 213.883859,37.4704941 C214.317176,37.5642353 214.744471,37.6862118 215.169129,37.8130824 C215.2064,37.824 215.246682,37.8371765 215.288471,37.8518588 C215.560659,37.9956706 215.829082,38.1455059 216.095247,38.2991059 C216.213082,38.3672471 216.324518,38.4436706 216.438965,38.5170824 C216.605741,38.6511059 216.791341,38.8043294 216.920471,38.9251765 C217.066918,39.0622118 217.204706,39.2075294 217.341741,39.3532235 C217.540894,39.6013176 217.768282,39.8953412 217.894776,40.0986353 C218.050259,40.3486118 218.189553,40.6076235 218.324329,40.8692706 C218.345412,40.9234824 218.364612,40.9758118 218.3808,41.0243765 C218.524988,41.4528 218.628518,41.8932706 218.729035,42.3337412 C218.744094,42.6258824 218.750118,42.9187765 218.750118,43.2109176 L218.750118,67.4857412 L19.2207059,67.4857412 L19.2207059,49.3488941 L19.2207059,44.0892235 L19.2207059,43.1393882 L19.2207059,43.0915765 C19.2207059,42.7399529 19.2274824,42.5844706 19.2414118,42.3314824 C19.3743059,41.8157176 19.7168941,40.9024 19.8731294,40.4559059 C19.9408941,40.3369412 20.0075294,40.2168471 20.0760471,40.0982588 C20.1475765,39.9747765 20.2620235,39.808 20.3862588,39.6359529 C20.8048941,39.2214588 21.4064941,38.6804706 21.6365176,38.4481882 C21.7679059,38.3672471 21.8992941,38.2870588 22.0333176,38.2102588 C22.2057412,38.1763765 23.4834824,37.6414118 24.1404235,37.4595765 C24.3922824,37.4482824 24.6723765,37.4430118 24.8722824,37.4430118 C25.1087059,37.4441412 25.3455059,37.4441412 25.5823059,37.4441412 Z M20.6791529,235.262118 L20.7134118,235.306541 C20.5315765,235.158965 20.4630588,235.093082 20.6791529,235.262118 Z M20.7194353,235.293365 C20.8263529,235.377694 20.9942588,235.512471 21.2212706,235.696941 C21.0606353,235.580509 20.9030906,235.459871 20.7488,235.335153 L20.7194353,235.293365 Z M218.324706,233.552188 C218.084141,233.984753 217.521694,234.7648 217.238588,235.169129 C217.1328,235.277176 217.027388,235.3856 216.920847,235.492141 C216.822965,235.590024 216.7424,235.672094 216.673506,235.744 C216.175812,236.041412 215.331388,236.465318 214.992565,236.656188 C214.745224,236.7296 214.496,236.796988 214.244894,236.857976 C213.867671,236.909176 213.343247,236.973553 213.022871,236.973553 L24.8843294,236.973553 C24.6121412,236.973553 24.352,236.963012 24.0877176,236.949835 C23.6020706,236.846306 23.1250824,236.706259 22.6533647,236.551529 C22.2418824,236.341835 21.8477176,236.100518 21.4565647,235.856565 L21.4223059,235.833976 C21.177368,235.609229 20.9374961,235.379022 20.7028706,235.143529 C20.6087529,235.049412 20.4875294,234.914635 20.3689412,234.778729 C20.2706824,234.625506 20.1728,234.472282 20.0768,234.317929 C19.9875765,234.174494 19.9085176,234.025788 19.8272,233.877835 C19.6897882,233.563859 19.5226353,233.164424 19.4458353,232.908047 C19.3745354,232.665637 19.3123739,232.420633 19.2594824,232.173553 C19.2466361,232.06746 19.2370942,231.960993 19.2308706,231.854306 C19.2214588,231.670212 19.2218353,231.485365 19.2218353,231.300518 L19.2218353,231.005365 L19.2218353,226.964329 L19.2218353,207.222588 L19.2218353,139.843012 L19.2218332,86.3088941 L218.750871,86.3088941 L218.750871,231.325741 C218.746444,231.560392 218.738412,231.794961 218.726776,232.029365 C218.705318,232.168282 218.6816,232.304565 218.656,232.417882 C218.567529,232.803012 218.448188,233.178353 218.324706,233.552188 Z" id="Shape"></path>
        </g>
    </g>
</svg>