<?xml version="1.0" encoding="UTF-8"?>
<svg width="256px" height="256px" viewBox="0 0 256 256" version="1.1" xmlns="http://www.w3.org/2000/svg" xmlns:xlink="http://www.w3.org/1999/xlink">
    <!-- Generator: Sketch 49.3 (51167) - http://www.bohemiancoding.com/sketch -->
    <title>Untitled 3</title>
    <desc>Created with Sketch.</desc>
    <defs></defs>
    <g id="Page-1" stroke="none" stroke-width="1" fill="none" fill-rule="evenodd">
        <g id="很多钱" transform="translate(17.000000, 0.000000)" fill="#646464" fill-rule="nonzero">
            <path d="M164.258965,71.2240674 C145.097473,71.2240674 127.722744,76.3070999 117.032972,84.3167268 L117.032972,34.2873646 C117.032972,15.0950662 91.8334537,0.0924187726 58.8091456,0.0924187726 C25.7848375,0.0924187726 0.061612515,15.1258724 0.061612515,34.2873646 L0.061612515,183.266426 L0.154031288,183.266426 C1.20144404,201.873406 26.4933815,216.259928 58.8091456,216.259928 L58.8399519,208.373526 L58.7783394,221.496992 L58.7783394,222.729242 L58.8707581,222.729242 C59.9489771,241.336221 85.3333333,255.722744 117.649097,255.722744 C150.334537,255.722744 175.965343,240.997353 176.489049,222.08231 L176.550662,222.08231 L176.550662,212.778821 C203.136462,209.605776 221.250542,196.328279 221.681829,179.877738 L221.743442,179.877738 L221.743442,105.449819 C221.774248,86.2575211 197.283273,71.2240674 164.258965,71.2240674 Z M58.8091456,12.3841155 C86.2575211,12.3841155 105.388207,23.9364621 105.388207,34.2873646 C105.388207,44.6382671 86.2575211,56.1906137 58.8091456,56.1906137 C32.777858,56.1906137 14.2632972,45.8089049 12.4149218,35.88929 L12.4149218,34.2873646 L12.2300842,34.2873646 C12.2300842,23.9364621 31.3607702,12.3841155 58.8091456,12.3841155 Z M58.8091456,105.419013 C32.3157641,105.419013 13.6163658,94.6676294 12.3533093,84.5939832 L12.3533093,82.4375451 C12.445728,81.7906137 12.5689531,81.1128761 12.8154031,80.4659446 C23.5359807,88.1983153 39.9865223,93.0965102 58.8091456,93.0965102 C77.631769,93.0965102 94.0823105,88.1983153 104.802888,80.4659446 C105.141757,81.4825511 105.388207,82.4991576 105.388207,83.5157641 C105.388207,93.8974729 86.2575211,105.419013 58.8091456,105.419013 Z M105.388207,108.16077 C105.388207,118.511673 86.2575211,130.064019 58.8091456,130.064019 C32.0693141,130.064019 13.277497,119.127798 12.322503,108.961733 L12.322503,107.205776 C12.3841155,106.497232 12.5381468,105.788688 12.7845969,105.080144 C23.5051745,112.843321 39.955716,117.741516 58.7783394,117.741516 C77.6009627,117.741516 94.0515042,112.843321 104.772082,105.110951 C105.141757,106.127557 105.388207,107.144164 105.388207,108.16077 Z M58.8091456,80.8048135 C32.5314079,80.8048135 13.9244284,70.2382671 12.3841155,60.2570397 L12.3841155,57.7001203 C12.4765343,57.0839952 12.5997593,56.46787 12.8154031,55.8517449 C23.5359807,63.5841155 39.9865223,68.4823105 58.8091456,68.4823105 C77.631769,68.4823105 94.1131167,63.5841155 104.833694,55.8209386 C105.172563,56.8067389 105.388207,57.8233454 105.388207,58.9015644 C105.388207,69.2524669 86.2575211,80.8048135 58.8091456,80.8048135 Z M58.9015644,196.081829 C58.9015644,196.359085 58.8091456,196.636342 58.8091456,196.913598 C58.8091456,197.283273 58.8707581,197.622142 58.9015644,197.961011 L58.8707581,203.937425 L58.8091456,203.937425 C31.3607702,203.937425 12.2608905,192.415884 12.2300842,182.064982 C12.2300842,180.986763 12.445728,179.970156 12.7845969,178.984356 C23.5051745,186.747533 39.9865223,191.645728 58.8091456,191.645728 L58.9323706,191.645728 L58.9015644,196.081829 Z M58.9015644,189.612515 L58.9323706,179.323225 L58.7783394,179.323225 C31.576414,179.323225 12.5689531,167.986522 12.2300842,157.697232 L12.2300842,157.173526 C12.2608905,156.249338 12.4765343,155.294344 12.7845969,154.370156 C23.5051745,162.102527 39.955716,167.000722 58.7783394,167.000722 C59.0247894,167.000722 59.2712395,166.969916 59.5176895,166.969916 C59.0864019,168.695066 58.7783394,170.451023 58.7783394,172.268592 C58.7783394,172.94633 58.9015644,173.654874 58.9323706,174.332611 L58.9015644,189.612515 Z M58.8091456,154.709025 C31.8536703,154.709025 12.9386282,143.55716 12.2916968,133.360289 L12.2916968,132.251264 C12.3533093,131.419495 12.5073406,130.587726 12.8154031,129.755957 C23.5359807,137.519134 39.9865223,142.386522 58.8091456,142.386522 C77.631769,142.386522 94.1131167,137.488327 104.802888,129.755957 C105.141757,130.772563 105.388207,131.78917 105.388207,132.805776 C105.388207,134.900602 104.556438,137.05704 103.077738,139.151865 C87.921059,141.33911 75.2904934,146.822623 67.4348977,154.308544 C64.6623345,154.524188 61.7973526,154.709025 58.8091456,154.709025 Z M117.679904,243.431047 C90.2623345,243.431047 71.1624549,231.909507 71.1008424,221.558604 L71.1008424,221.496992 C71.1008424,220.511191 71.3472924,219.494585 71.6861613,218.477978 C82.3759326,226.210349 98.8572804,231.108544 117.679904,231.108544 C136.502527,231.108544 152.953069,226.210349 163.673646,218.477978 C164.012515,219.494585 164.258965,220.511191 164.258965,221.527798 C164.258965,231.909507 145.128279,243.431047 117.679904,243.431047 Z M117.679904,218.816847 C90.9092659,218.816847 72.1482551,207.849819 71.1932611,197.714561 L71.1932611,196.174248 C71.2548736,195.404091 71.4089049,194.633935 71.6861613,193.863779 C82.4067389,201.596149 98.8572804,206.494344 117.679904,206.494344 C136.502527,206.494344 152.983875,201.596149 163.704452,193.832972 C164.043321,194.818773 164.258965,195.835379 164.258965,196.913598 C164.258965,207.264501 145.128279,218.816847 117.679904,218.816847 Z M117.679904,194.171841 C91.5870036,194.171841 73.0416366,183.759326 71.2856799,173.808905 L71.2856799,172.268592 L71.1008424,172.268592 C71.1008424,161.91769 90.2315283,150.365343 117.679904,150.365343 C145.128279,150.365343 164.258965,161.91769 164.258965,172.268592 C164.258965,182.650301 145.128279,194.171841 117.679904,194.171841 Z M176.581468,200.394705 L176.581468,188.164621 C190.197834,186.531889 201.965824,182.280626 210.252708,176.304212 C210.591576,177.320818 210.838026,178.337425 210.838026,179.354031 C210.838026,188.041396 197.252467,197.591336 176.581468,200.394705 Z M176.581468,175.749699 L176.581468,172.299398 C176.581468,169.311191 175.90373,166.446209 174.702286,163.704452 C189.119615,162.256558 201.565343,157.912876 210.252708,151.659206 C210.591576,152.675812 210.838026,153.692419 210.838026,154.709025 C210.838026,163.427196 197.252467,172.94633 176.581468,175.749699 Z M165.244765,151.936462 C155.32515,144.05006 139.675572,138.843803 121.561492,138.196871 C119.43586,135.886402 118.111191,133.51432 117.833935,131.111432 L117.833935,129.109025 C117.895548,128.400481 118.049579,127.722744 118.296029,127.0142 C129.016606,134.74657 145.467148,139.644765 164.289771,139.644765 C183.112395,139.644765 199.593742,134.74657 210.31432,126.983394 C210.653189,127.969194 210.868833,128.9858 210.868833,130.064019 C210.838026,140.291697 192.138628,151.659206 165.244765,151.936462 Z M164.258965,127.322262 C138.196871,127.322262 119.651504,116.909747 117.864741,106.990132 L117.864741,105.419013 L117.679904,105.419013 C117.679904,95.0681107 136.81059,83.5157641 164.258965,83.5157641 C191.707341,83.5157641 210.838026,95.0373045 210.838026,105.419013 C210.838026,115.800722 191.707341,127.322262 164.258965,127.322262 Z" id="Shape"></path>
        </g>
    </g>
</svg>