<?xml version="1.0" encoding="UTF-8"?>
<svg width="256px" height="256px" viewBox="0 0 256 256" version="1.1" xmlns="http://www.w3.org/2000/svg" xmlns:xlink="http://www.w3.org/1999/xlink">
    <!-- Generator: Sketch 49.3 (51167) - http://www.bohemiancoding.com/sketch -->
    <title>Untitled</title>
    <desc>Created with Sketch.</desc>
    <defs></defs>
    <g id="Page-1" stroke="none" stroke-width="1" fill="none" fill-rule="evenodd">
        <g id="钱2" transform="translate(1.000000, 0.000000)" fill="#646464" fill-rule="nonzero">
            <path d="M0.2457794,114.563923 C0.2457794,113.88803 0.2457794,113.181414 0.276501826,112.505521 C0.276501826,112.106129 0.2457794,112.659133 0.2457794,114.563923 Z M127.405897,42.7348933 C131.215477,42.7348933 134.28772,39.6626507 134.28772,35.85307 C134.28772,32.0434893 131.215477,28.9712468 127.405897,28.9712468 C73.2115389,28.9712468 29.124859,67.9272818 29.124859,115.79282 C29.124859,117.236774 29.1555814,118.650006 29.2477487,120.09396 C29.4320832,123.780651 32.4736033,126.607114 36.1295719,126.607114 L36.498241,126.607114 C40.3078217,126.392057 43.2264521,123.166202 43.0113951,119.356621 C42.9499502,118.189169 42.9192278,116.990995 42.9192278,115.823542 C42.9192278,75.4849984 80.8307003,42.7348933 127.405897,42.7348933 Z M136.837681,115.91571 L136.837681,93.2118376 C142.214106,94.7786813 147.375473,97.5129771 151.584445,101.721949 L160.248169,90.3239297 C154.072962,84.3945016 146.146576,80.5234761 136.837681,78.9566324 L136.837681,65.0086514 L133.888328,65.0086514 L133.888328,64.7014272 L123.381259,64.7014272 L123.381259,78.2500166 C106.453203,79.6939706 95.7003541,90.3239297 95.7003541,103.688185 C95.7003541,120.73913 109.863392,125.593274 123.381259,129.003463 L123.381259,154.441631 C113.949475,152.997677 106.330313,148.020644 101.47617,142.64422 L92.8124461,154.56452 C99.7557142,161.78429 109.863392,167.160715 123.381259,168.205277 L123.381259,180.862916 L129.802246,180.862916 L129.802246,180.893639 L136.837681,180.893639 L136.837681,167.744441 C154.349463,165.133035 162.337294,153.980794 162.337294,141.323155 C162.368016,125.009548 149.587488,119.479511 136.837681,115.91571 Z M123.411981,112.351908 C116.468713,110.262784 111.491681,107.620655 111.491681,102.520732 C111.491681,96.7449165 116.069322,92.6895564 123.411981,91.7678836 L123.411981,112.351908 Z M136.837681,153.950072 L136.837681,132.782321 C142.552052,134.902168 146.607412,137.728632 146.607412,142.797832 C146.607412,147.283306 143.750227,151.983837 136.837681,153.950072 Z M252.907003,107.221263 C248.698031,47.4661467 193.82778,0 126.791448,0 C57.7888815,0 1.50539883,50.2926098 0.276501826,112.505521 C0.337946676,114.563923 0.583726076,143.473725 0.583726076,143.473725 C0.583726076,204.826408 57.2358779,254.750349 126.883615,254.750349 C196.500631,254.750349 253.183505,204.826408 253.183505,143.473725 C253.183505,141.538212 253.214227,138.988251 253.275672,136.038898 C253.214227,120.800575 253.029893,116.007877 252.907003,107.221263 Z M126.883615,240.986702 C79.3253015,240.986702 38.6795331,215.24131 22.2430357,178.988848 C45.0390751,209.219715 83.3806616,229.127846 126.791448,229.127846 C170.509459,229.127846 209.096825,208.943213 231.831419,178.343677 C215.579257,214.903363 174.718431,240.986702 126.883615,240.986702 Z M126.791448,215.333477 C64.6092599,215.333477 14.0401483,170.110068 14.0401483,114.563923 C14.0401483,58.9870561 64.6092599,13.7943689 126.791448,13.7943689 C188.697135,13.7943689 239.051189,58.618387 239.481303,113.857307 C239.481303,114.164532 239.512026,114.471756 239.512026,114.809702 C239.389136,170.232957 188.881469,215.333477 126.791448,215.333477 Z" id="Shape"></path>
        </g>
    </g>
</svg>