<?xml version="1.0" encoding="UTF-8"?>
<svg width="256px" height="257px" viewBox="0 0 256 257" version="1.1" xmlns="http://www.w3.org/2000/svg" xmlns:xlink="http://www.w3.org/1999/xlink">
    <!-- Generator: Sketch 49.3 (51167) - http://www.bohemiancoding.com/sketch -->
    <title>Untitled 2</title>
    <desc>Created with Sketch.</desc>
    <defs></defs>
    <g id="Page-1" stroke="none" stroke-width="1" fill="none" fill-rule="evenodd">
        <g id="星星" transform="translate(0.000000, 6.000000)" fill="#646464" fill-rule="nonzero">
            <path d="M255.176092,92.5131034 C253.94023,88.7466667 250.850575,85.8924138 246.995862,84.9508046 L175.904368,67.7958621 L137.592644,5.47310345 C135.503448,2.0891954 131.825287,0.0294252874 127.882299,0.0294252874 C123.909885,0.0294252874 120.231724,2.0891954 118.171954,5.47310345 L79.8896552,67.7958621 L8.79816092,84.9508046 C4.94344828,85.8924138 1.8537931,88.7466667 0.617931034,92.5131034 C-0.617931034,96.2795402 0.205977011,100.428506 2.7954023,103.429885 L50.2289655,159.102529 L44.5793103,232.018391 C44.2850575,235.961379 46.0505747,239.786667 49.257931,242.111264 C51.2294253,243.553103 53.5834483,244.288736 55.9668966,244.288736 C57.4381609,244.288736 58.9094253,243.994483 60.3218391,243.435402 L127.911724,215.510805 L195.531034,243.435402 C196.943448,244.023908 198.414713,244.288736 199.885977,244.288736 C202.269425,244.288736 204.594023,243.553103 206.594943,242.111264 C209.802299,239.786667 211.567816,235.961379 211.273563,232.018391 L205.623908,159.102529 L253.057471,103.429885 C255.558621,100.428506 256.382529,96.2795402 255.176092,92.5131034 Z M193.824368,155.306667 L199.856552,232.930575 L127.882299,203.211034 L55.9374713,232.930575 L61.9696552,155.306667 L11.4464368,96.0441379 L87.1282759,77.8004598 L127.882299,11.4758621 L168.636322,77.8004598 L244.318161,96.0441379 L193.824368,155.306667 Z" id="Shape"></path>
        </g>
    </g>
</svg>