<?xml version="1.0" encoding="UTF-8"?>
<svg width="256px" height="256px" viewBox="0 0 256 256" version="1.1" xmlns="http://www.w3.org/2000/svg" xmlns:xlink="http://www.w3.org/1999/xlink">
    <!-- Generator: Sketch 49.3 (51167) - http://www.bohemiancoding.com/sketch -->
    <title>Untitled</title>
    <desc>Created with Sketch.</desc>
    <defs></defs>
    <g id="Page-1" stroke="none" stroke-width="1" fill="none" fill-rule="evenodd">
        <g id="粉丝" transform="translate(6.000000, 6.000000)" fill="#646464" fill-rule="nonzero">
            <path d="M124.945955,168.1003 C124.945955,168.852903 125.303343,169.224876 125.821946,169.761914 C126.528632,170.490854 127.315926,171.306655 128.191916,172.395159 C128.813373,173.165077 131.052465,175.672214 133.648078,178.576143 L133.632765,178.590283 C139.371486,185.011649 146.704729,193.219293 147.279381,196.258852 C148.1051,200.63278 147.194151,206.517686 146.209528,212.869217 C145.509776,217.388875 144.763219,222.199128 144.763219,226.255913 C144.763219,228.529882 144.854228,230.246037 145.166256,230.246037 C145.958172,230.246037 151.907223,227.613946 155.611114,225.97715 C156.460236,225.60258 157.132252,225.303905 158.486975,224.744069 C161.97707,223.305524 164.588862,222.111979 166.640159,221.173822 C171.866055,218.78702 174.387995,217.631855 178.412005,217.885224 C181.843738,218.102232 184.528048,219.337621 189.710607,221.722403 C192.752017,223.121413 196.807807,224.989069 202.038325,227.147609 L202.067795,227.147609 L202.888892,227.48957 C205.034664,228.385595 206.698237,229.079906 208.590342,228.476784 C211.136551,227.663581 209.934664,218.287786 209.052895,211.402102 C208.843721,209.746549 208.637146,208.15275 208.54816,207.297415 C208.486333,206.686213 208.279469,205.023734 208.102075,203.579128 C207.573072,199.247044 207.338184,197.342161 208.605366,194.308663 L208.591498,194.302603 C209.497824,192.143198 210.623726,190.936667 212.617818,188.800636 C213.955206,187.364399 215.879092,185.301667 218.538844,181.984788 L218.73964,181.75364 L228.279328,170.905824 L228.510749,170.647839 C229.114581,170.018746 229.574823,169.399464 229.889163,168.814812 C230.021197,168.568369 230.119428,168.347032 230.185879,168.150801 L230.185879,167.790371 C230.041999,167.70149 229.840047,167.612032 229.579446,167.524305 L229.551421,167.524305 C228.789552,167.267473 227.986079,167.117126 227.136958,166.960718 C226.425649,166.829128 225.685159,166.692344 224.909422,166.517468 L221.02467,165.693875 L221.026981,165.689258 C212.75332,163.942515 197.983113,160.828793 194.991975,157.801355 L194.384387,157.183804 L193.924145,156.418793 L179.096733,131.677833 L179.068709,131.620695 C178.636492,130.886849 178.186651,130.32586 177.741433,129.947538 L177.715719,129.925607 L177.413225,129.925607 L177.387512,129.947538 C176.943738,130.32586 176.495053,130.885695 176.06168,131.620695 L176.033656,131.677833 L163.668379,152.285247 L163.662311,152.281496 L162.855083,153.653669 C160.900861,156.991325 160.040183,158.460459 157.354717,159.969128 C155.580489,160.961826 154.113379,161.239435 151.513143,161.721355 C150.399086,161.930283 148.918974,162.205583 146.357164,162.802933 C145.58056,162.983581 144.905366,163.144894 141.049505,164.018698 C139.231664,164.433581 137.410576,164.834136 135.586409,165.220324 L135.589009,165.229558 L125.224758,167.648104 L124.801787,167.793834 L124.809876,167.80076 C124.724068,167.906667 124.945955,167.773634 124.945955,168.1003 Z M0.297004717,233.433922 C0.225642689,230.955931 0.215819575,227.658963 0.245,224.128539 C0.281114387,219.618115 0.404481132,214.886066 0.557606132,210.943846 C0.718820755,206.849835 0.925395047,203.491113 1.12879127,201.949835 L1.47202241,199.356413 L1.50871462,199.356413 C2.15226693,195.232559 3.01922557,191.146594 4.10577241,187.116514 C5.44200472,182.159087 7.06686321,177.452721 8.92660967,173.035506 L8.9387441,173.035506 C10.868408,168.456402 13.0650295,164.143074 15.4607134,160.148333 C17.959829,155.983045 20.6733196,152.15308 23.5327123,148.70894 C26.4108844,145.237962 29.1954481,142.159158 31.9953243,139.369505 C34.8058903,136.566001 37.597388,134.090029 40.4824941,131.825583 C43.3713561,129.555077 46.4350118,127.440112 49.7768927,125.369011 C53.0751474,123.327344 56.6007783,121.358687 60.4687736,119.354246 L61.1182547,119.016037 L61.1578361,119.016037 C61.5425739,118.828969 61.9308502,118.64925 62.3224528,118.476979 C62.8552368,118.238546 63.3924232,118.010051 63.9337323,117.791614 L63.934888,117.795654 L64.0270519,117.759005 C65.0876592,117.320371 66.139888,116.8852 67.2368986,116.334022 L70.5391981,114.668946 L68.2041863,111.799647 C67.7885636,111.290834 67.3408972,110.808995 66.8639092,110.357061 L66.8517748,110.357061 C66.4212913,109.942668 65.779033,109.377638 65.0740802,108.756914 L65.081592,108.751431 C63.8849057,107.705347 62.4440861,106.43331 60.8746993,104.820754 C59.0246248,102.923631 57.3312583,100.880107 55.8111733,98.7101826 C51.8302123,93.0365135 48.9159257,87.1498763 46.975283,81.2219729 C44.9265861,74.958457 43.9529422,68.6147173 43.9439858,62.3864075 C43.9369543,57.3856418 44.5437726,52.4028772 45.7508608,47.5496231 C46.9741594,42.6488008 48.7834466,37.9128155 51.1397052,33.4437986 C53.4722073,29.0122038 56.3214529,24.8718122 59.6280307,21.1089576 C62.9075059,17.381437 66.6376887,14.0241578 70.7486616,11.1493757 C75.8144988,7.6019258 81.4668337,4.77216137 87.5649646,2.86295053 C93.3736026,1.04233216 99.6323703,0.0418433451 106.215012,0.027991755 C113.085702,0.0193345112 119.548443,1.05993522 125.506162,2.96510601 C131.654687,4.93137175 137.444439,7.87775041 142.65125,11.6901649 C146.644923,14.6140047 150.256651,18.0188987 153.431539,21.7868198 C156.651306,25.6144306 159.414824,29.8028109 161.666486,34.2676796 L161.666486,34.2797998 C163.902111,38.7183687 165.632134,43.4143463 166.792995,48.232391 C167.946055,52.9961837 168.551044,57.9114782 168.560289,62.8513015 C168.57069,69.128669 167.618715,75.4516313 165.617978,81.5847114 C161.683821,93.6127974 156.166987,100.525895 147.137813,108.905819 C136.547052,117.341726 122.825607,125.076973 106.217901,124.570524 C99.9579776,124.58351 93.6529835,125.30437 87.4768455,126.637874 C81.1574057,128.001967 75.0069811,130.020259 69.202388,132.586843 C63.3310554,135.186325 57.7729068,138.371325 52.7278715,142.037091 C47.7718219,145.636484 43.3034611,149.703369 39.5123172,154.134723 C37.614145,156.350112 35.817671,158.550495 34.1064269,160.812921 C32.4310083,163.029753 30.863355,165.279193 29.3997111,167.627326 C27.8734126,170.076684 26.4764294,172.604109 25.214487,175.19924 C23.9091686,177.890777 22.6729009,180.790088 21.5027948,183.978551 C20.5135495,186.672686 19.5084139,190.182044 18.6211557,194.106949 C17.776079,197.84861 17.0367453,201.933098 16.5227653,206.011814 L16.5227653,206.0248 C16.0573231,209.731254 15.7571403,213.49023 15.7051356,217.05788 C15.6617983,220.222102 15.8143455,223.277821 16.2220047,226.041502 L16.5970165,234.882856 C17.7116509,242.15725 2.02442807,250.502544 0.297004717,233.433922 Z M59.9172347,56.9205124 C59.7274175,58.3440518 59.619941,59.7941402 59.619941,61.2222968 C59.619941,67.9446466 60.8267394,74.0693581 62.9687559,79.5156302 C65.1787783,85.1440294 68.4936159,90.274038 72.7181958,94.6037633 C74.9163545,96.8543232 77.3371077,98.8766862 79.9433844,100.639882 C82.5682464,102.413144 85.3650638,103.918137 88.2915861,105.132126 C91.2232075,106.34616 94.2458373,107.270177 97.2927358,107.880801 C100.352739,108.492394 103.465892,108.799592 106.586557,108.797892 C112.407618,108.797892 118.261327,107.714005 123.806474,105.457061 C129.048838,103.322185 134.032913,100.136896 138.46227,95.8281861 C142.057529,92.3292167 145.030177,88.3549647 147.320985,84.0895406 L147.326763,84.0912721 C149.646462,79.7617845 151.272476,75.1252532 152.136044,70.3709835 C153.002924,65.6144743 153.105814,60.7504148 152.440849,55.9615783 C151.789057,51.2768551 150.387529,46.6313781 148.203042,42.1893463 C145.747842,37.1871908 142.631604,32.8903121 139.053679,29.3096761 C135.387556,25.6407561 131.118585,22.6270564 126.432423,20.3996408 C123.271535,18.8913017 119.948185,17.7492895 116.527258,16.9959011 C113.061649,16.2320629 109.521536,15.8568069 105.972612,15.8770966 C102.480206,15.8981625 98.9490861,16.3212132 95.475171,17.1323969 C92.0503715,17.9320377 88.7226474,19.1076914 85.5786733,20.6489694 C80.9163928,22.9338871 76.6770147,25.9939675 73.0417807,29.6983863 C69.5248172,33.2824853 66.4779186,37.579364 64.0961026,42.5693993 C63.506138,43.8073852 62.8913267,45.3140342 62.3146521,46.9871908 C61.7561792,48.6101355 61.2453774,50.3170554 60.8429186,52.0031979 C60.4583726,53.6105595 60.1318986,55.2739046 59.9172347,56.9205124 Z M115.215873,179.949181 C112.235713,176.86778 110.190195,174.751372 110.190195,168.100012 C110.190195,164.085648 111.348166,160.9751 113.398308,158.474888 L113.425755,158.474888 C115.384599,156.088952 117.913473,154.587497 120.854051,153.591048 L121.230796,153.462921 L121.545425,153.389335 L132.246262,150.892874 L132.419322,150.864594 C134.223173,150.485045 136.023942,150.091031 137.821456,149.682591 L143.01355,148.467114 C145.269399,147.9396 147.320407,147.556949 148.860902,147.270106 C149.85737,147.086861 149.886551,147.277032 150.150619,147.130147 C150.898042,146.710271 149.637795,147.144287 150.176333,146.2246 L151.017364,144.800194 L151.044233,144.743057 L163.409511,124.134488 L163.412978,124.136796 C164.708184,121.945936 166.203608,120.155041 167.818933,118.776519 C169.782689,117.096437 171.950419,115.974747 174.221291,115.416355 L175.15911,115.185206 L179.975324,115.185206 L180.909676,115.416355 C183.180259,115.974747 185.35059,117.098168 187.31059,118.776519 C188.925047,120.155041 190.421338,121.945936 191.716545,124.136796 L191.720301,124.134488 L205.769953,147.575707 C207.616698,148.017803 217.928367,150.011567 224.051055,151.302073 L224.080525,151.302073 C225.481185,151.596996 226.493833,151.809676 228.139493,152.180495 C228.725991,152.312373 229.269151,152.415106 229.790065,152.510913 C231.260643,152.782462 232.643679,153.039293 234.277783,153.591048 L234.274316,153.599128 C237.113774,154.561814 239.44763,156.071349 241.209145,157.976808 C243.208726,160.14083 244.447017,162.753298 244.854676,165.629234 L244.941061,166.238127 L244.941061,169.106849 L244.854676,169.754411 C244.585696,171.759717 243.923502,173.799364 242.857117,175.781584 C241.945012,177.47321 240.718567,179.160218 239.163915,180.786914 L229.994617,191.213698 C226.983255,194.969211 224.866663,197.240872 223.394929,198.818221 C222.551586,199.723769 222.316987,199.653645 222.195354,199.942797 L222.165884,199.973098 C221.891704,200.626431 222.533962,200.073522 222.744292,201.791985 C222.826055,202.459458 222.933243,203.333263 223.190377,205.798557 C223.351881,207.352532 223.49056,208.417662 223.636751,209.559841 C225.176091,221.568592 227.268125,237.914046 213.026922,242.464005 C205.960059,244.718062 202.156781,243.130324 197.240313,241.075383 L196.419216,240.733422 L196.425283,240.723033 C190.444741,238.254276 186.499894,236.438852 183.546026,235.079664 C180.00566,233.450948 178.169605,232.605135 177.488343,232.563004 C177.113331,232.540783 175.690713,233.189499 172.750713,234.531084 C170.560737,235.533304 167.772706,236.806207 164.076904,238.329882 L161.549186,239.448687 C156.745973,241.570866 149.03454,244.982397 145.166834,244.982397 C133.34385,244.982397 130.008903,236.932314 130.008903,226.254759 C130.008903,221.435271 130.873337,215.860583 131.684033,210.624682 C132.461792,205.595978 133.183502,200.932898 132.812246,198.963375 C132.634853,198.028969 127.199493,193.42851 122.668726,188.361714 L122.639546,188.361714 C120.056356,185.471926 117.835755,182.987008 116.721409,181.605601 C116.230254,180.992956 115.711073,180.458516 115.246209,179.979193 L115.215873,179.949181 Z M125.792765,169.731325 L125.821946,169.761625 L125.792765,169.731325 Z" id="Shape"></path>
        </g>
    </g>
</svg>