<?xml version="1.0" standalone="no"?><!DOCTYPE svg PUBLIC "-//W3C//DTD SVG 1.1//EN" "http://www.w3.org/Graphics/SVG/1.1/DTD/svg11.dtd"><svg t="1506396094681" class="icon" style="" viewBox="0 0 1024 1024" version="1.1" xmlns="http://www.w3.org/2000/svg" p-id="2414" xmlns:xlink="http://www.w3.org/1999/xlink" width="128" height="128"><defs><style type="text/css"></style></defs><path d="M518.4 665.6C588.8 620.8 640 537.6 640 448c0-140.8-115.2-256-256-256S128 307.2 128 448c0 89.6 51.2 172.8 121.6 217.6C102.4 716.8 0 857.6 0 1024l64 0c0-179.2 140.8-320 320-320s320 140.8 320 320l64 0C768 857.6 665.6 716.8 518.4 665.6zM192 448c0-108.8 83.2-192 192-192s192 83.2 192 192-83.2 192-192 192S192 556.8 192 448z" p-id="2415" fill="#646464"></path><path d="M774.4 473.6C844.8 428.8 896 345.6 896 256c0-140.8-115.2-256-256-256C544 0 460.8 51.2 416 134.4c19.2 0 44.8 6.4 64 12.8C512 96 569.6 64 640 64c108.8 0 192 83.2 192 192 0 102.4-70.4 179.2-172.8 192 0 0 0 0 0 0 0 25.6-6.4 44.8-6.4 64 172.8 6.4 307.2 140.8 307.2 320l64 0C1024 665.6 921.6 524.8 774.4 473.6z" p-id="2416" fill="#646464"></path></svg>