<?xml version="1.0" encoding="UTF-8"?>
<svg width="256px" height="256px" viewBox="0 0 256 256" version="1.1" xmlns="http://www.w3.org/2000/svg" xmlns:xlink="http://www.w3.org/1999/xlink">
    <!-- Generator: Sketch 49.3 (51167) - http://www.bohemiancoding.com/sketch -->
    <title>Untitled 3</title>
    <desc>Created with Sketch.</desc>
    <defs></defs>
    <g id="Page-1" stroke="none" stroke-width="1" fill="none" fill-rule="evenodd">
        <g id="分享" fill="#646464" fill-rule="nonzero">
            <path d="M224,88 L168,88 C163.566667,88 160,91.5666667 160,96 C160,100.433333 163.566667,104 168,104 L224,104 C232.833333,104 240,111.166667 240,120 L240,224 C240,232.833333 232.833333,240 224,240 L32,240 C23.1666667,240 16,232.833333 16,224 L16,120 C16,111.166667 23.1666667,104 32,104 L88,104 C92.4333333,104 96,100.433333 96,96 C96,91.5666667 92.4333333,88 88,88 L32,88 C14.3666667,88 0,102.366667 0,120 L0,224 C0,241.633333 14.3666667,256 32,256 L224,256 C241.633333,256 256,241.633333 256,224 L256,120 C256,102.366667 241.633333,88 224,88 Z" id="Shape"></path>
            <path d="M88,48 C89.7666667,48 91.5,47.4333333 93,46.2333333 L120,24.6333333 L120,168 C120,172.433333 123.566667,176 128,176 C132.433333,176 136,172.433333 136,168 L136,24.6333333 L163,46.2333333 C164.466667,47.4 166.233333,48 168,48 C170.366667,48 172.666667,46.9666667 174.266667,45 C177.033333,41.5666667 176.466667,36.5 173,33.7666667 L133,1.76666667 C132.8,1.6 132.566667,1.56666667 132.366667,1.43333333 C132.066667,1.23333333 131.766667,1.03333333 131.466667,0.866666667 C131.2,0.733333333 130.933333,0.633333333 130.633333,0.533333333 C130.266667,0.4 129.9,0.333333333 129.533333,0.266666667 C129.166667,0.2 128.833333,0.133333333 128.466667,0.1 C128.3,0.1 128.2,0 128.033333,0 C127.866667,0 127.733333,0.0666666667 127.6,0.1 C127.233333,0.133333333 126.9,0.2 126.533333,0.266666667 C126.133333,0.333333333 125.8,0.433333333 125.4,0.533333333 C125.1,0.633333333 124.833333,0.733333333 124.566667,0.866666667 C124.233333,1.03333333 123.966667,1.23333333 123.666667,1.43333333 C123.466667,1.56666667 123.2,1.6 123.033333,1.76666667 L83.0333333,33.7666667 C79.6,36.5333333 79.0333333,41.5666667 81.7666667,45 C83.3333333,46.9666667 85.6666667,48 88,48 Z" id="Shape"></path>
        </g>
    </g>
</svg>