<?xml version="1.0" encoding="UTF-8"?>
<svg width="256px" height="256px" viewBox="0 0 256 256" version="1.1" xmlns="http://www.w3.org/2000/svg" xmlns:xlink="http://www.w3.org/1999/xlink">
    <!-- Generator: Sketch 49.3 (51167) - http://www.bohemiancoding.com/sketch -->
    <title>Untitled 4</title>
    <desc>Created with Sketch.</desc>
    <defs></defs>
    <g id="Page-1" stroke="none" stroke-width="1" fill="none" fill-rule="evenodd">
        <g id="奖章" transform="translate(32.000000, 0.000000)" fill="#646464" fill-rule="nonzero">
            <path d="M192.299666,92.4111483 C192.299666,90.8700111 191.671795,89.4144928 190.558751,88.3585284 L169.525084,68.4949833 L175.204459,40.1266444 C175.518395,38.6140468 175.17592,37.0729097 174.291193,35.8171683 C173.406466,34.561427 172.008027,33.7623188 170.495429,33.5625418 L141.813155,29.8523969 L129.740914,3.56744705 C129.113043,2.1690078 127.914381,1.11304348 126.458863,0.62787068 C125.003344,0.142697882 123.405128,0.285395764 122.063768,1.02742475 L96.6635452,14.8976589 L71.4630992,0.713489409 C70.1217391,-0.0285395764 68.5235229,-0.199777035 67.0680045,0.256856187 C65.6124861,0.713489409 64.4138239,1.76945373 63.728874,3.16789298 L51.3712375,29.2530658 L22.6318841,32.5921962 C21.0622074,32.7348941 19.7208473,33.5625418 18.8075808,34.8182832 C17.8943144,36.0454849 17.5518395,37.6151616 17.8372352,39.1277592 L23.174136,67.5531773 L1.91215162,87.1598662 C0.799108138,88.187291 0.142697882,89.6713489 0.142697882,91.2124861 C0.142697882,92.7536232 0.770568562,94.2091416 1.88361204,95.2651059 L22.9172798,115.128651 L17.2379041,143.49699 C16.9239688,145.009588 17.2664437,146.579264 18.1797101,147.806466 C19.064437,149.062207 20.4343367,149.889855 21.9754738,150.061093 L50.657748,153.771237 L52.4272018,157.62408 L31.2793757,237.591973 C30.7942029,239.504125 31.393534,241.558974 32.8205128,242.928874 C34.2474916,244.298774 36.3023411,244.812486 38.1859532,244.241695 L63.5576366,236.849944 L79.1973244,253.97369 C80.16767,255.029654 81.5090301,255.657525 82.8789298,255.771683 C83.5068004,255.828763 84.1632107,255.743144 84.819621,255.571906 C86.8459309,255.001115 88.3585284,253.31728 88.7295429,251.233891 L98.4615385,200.804459 L111.932219,240.759866 C112.50301,242.643478 114.044147,244.098997 115.984838,244.52709 C116.52709,244.641249 117.069342,244.698328 117.611594,244.669788 C118.981494,244.55563 120.294314,243.956299 121.26466,242.900334 L139.216054,223.521962 L161.419844,230.143144 C163.446154,230.742475 165.615162,230.143144 167.04214,228.602007 C168.469119,227.06087 168.925753,224.834783 168.183724,222.865552 L140.643032,155.198216 L141.042586,154.342029 L169.78194,150.974359 C169.839019,150.974359 169.896098,150.974359 169.953177,150.945819 C169.981717,150.945819 170.038796,150.945819 170.067336,150.91728 C173.092531,150.460647 175.17592,147.635229 174.719287,144.610033 C174.662207,144.18194 174.548049,143.753846 174.376812,143.354292 L169.239688,116.013378 L190.501672,96.406689 C191.643255,95.4078038 192.299666,93.9522854 192.299666,92.4111483 Z M79.7681159,238.248384 L69.3511706,226.832553 C67.9241918,225.262876 65.7266444,224.663545 63.7003344,225.234337 L44.2648829,230.913712 L59.5906355,173.406466 L62.6443701,180.056187 C63.2722408,181.454627 64.470903,182.510591 65.9264214,182.995764 C67.3819398,183.480936 68.9801561,183.338239 70.3215162,182.59621 L93.0960981,170.181494 L79.7681159,238.248384 Z M153.885396,216.329989 L139.073356,211.906355 C137.047046,211.307023 134.878038,211.906355 133.42252,213.447492 L119.666444,228.316611 L103.284727,180.512821 C103.142029,180.056187 102.856633,179.685173 102.628317,179.285619 L103.798439,173.292308 L120.950725,182.938685 C122.035229,183.538016 123.29097,183.766332 124.489632,183.595095 C124.775028,183.538016 125.060424,183.480936 125.345819,183.395318 C126.801338,182.938685 128,181.88272 128.68495,180.484281 L134.278707,168.697436 L153.885396,216.329989 Z M159.479153,109.962988 C158.080713,111.247269 157.424303,113.18796 157.795318,115.043032 L162.589967,140.671572 L136.704571,143.696767 C135.020736,143.839465 133.165663,145.095206 132.338016,146.83612 L121.179041,170.381271 L98.4615385,157.62408 C97.3770346,156.99621 96.1212932,156.796433 94.922631,156.96767 C94.2947603,157.053289 93.6668896,157.253066 93.0960981,157.595541 L70.2073579,170.067336 L59.3337793,146.379487 C58.5346711,144.638573 56.9079153,143.439911 55.0243032,143.211594 L29.1959866,139.843924 L34.3331104,114.301003 C34.7041249,112.417391 34.1047938,110.50524 32.7063545,109.192419 L13.7560758,91.2981048 L32.9346711,73.632107 C34.3331104,72.3478261 34.960981,70.4071349 34.6185061,68.5520624 L29.8238573,42.9520624 L55.7092531,39.9268673 C57.6784838,39.7556299 59.2481605,38.5284281 60.0758082,36.8160535 L71.2347826,13.270903 L93.9522854,26.0280936 C95.6075808,26.9698997 97.6624303,26.9698997 99.3177258,26.0566332 L122.177926,13.5848384 L133.051505,37.2726867 C133.850613,39.0136009 135.477369,40.2122631 137.360981,40.4405797 L163.217837,43.7797101 L158.109253,69.322631 C157.738239,71.206243 158.33757,73.1183946 159.736009,74.4312152 L178.686288,92.3255295 L159.479153,109.962988 Z M97.1201784,47.9464883 C72.8615385,47.9464883 53.1121516,67.6958751 53.1121516,91.9545151 C53.1121516,116.213155 72.8615385,135.962542 97.1201784,135.962542 C121.378818,135.962542 141.128205,116.213155 141.128205,91.9545151 C141.099666,67.6673356 121.378818,47.9464883 97.1201784,47.9464883 Z M97.1201784,124.860647 C78.9690078,124.860647 64.1855072,110.077146 64.1855072,91.9259755 C64.1855072,73.7748049 78.9690078,58.9913043 97.1201784,58.9913043 C115.271349,58.9913043 130.054849,73.7748049 130.054849,91.9259755 C130.054849,110.105686 115.271349,124.860647 97.1201784,124.860647 Z" id="Shape"></path>
        </g>
    </g>
</svg>