<?xml version="1.0" encoding="utf-8"?>
<!-- Generator: Adobe Illustrator 19.0.0, SVG Export Plug-In . SVG Version: 6.00 Build 0)  -->
<svg version="1.1" id="Layer_1" xmlns="http://www.w3.org/2000/svg" xmlns:xlink="http://www.w3.org/1999/xlink" x="0px" y="0px"
	 viewBox="-35 37 128 128" style="enable-background:new -35 37 128 128;" xml:space="preserve">
<style type="text/css">
	.st0{fill:#646464;}
</style>
<path class="st0" d="M47,105.9c10.7-6,17.9-17.3,17.9-30.4c0-19.2-15.7-34.9-35-34.9c-19.3,0-35,15.6-35,34.9
	c0,12.5,6.7,23.5,16.7,29.7c-22.6,7.1-39,28.1-39,53c0,0.8,0.1,1.5,0.1,2.2h7.8c0-0.7-0.1-1.5-0.1-2.2c0-26.3,21.5-47.7,48-47.7
	c26.4,0,48,21.4,48,47.7c0,0.8-0.1,1.5-0.1,2.2h7.8c0-0.7,0.1-1.5,0.1-2.2C84,134.1,68.5,113.6,47,105.9z M2.6,75.5
	c0-14.9,12.2-27.1,27.2-27.1c15,0,27.2,12.2,27.2,27.1c0,14.9-12.2,27.1-27.2,27.1C14.8,102.6,2.6,90.5,2.6,75.5L2.6,75.5z"/>
</svg>
