<?xml version="1.0" encoding="utf-8"?>
<!-- Generator: Adobe Illustrator 19.0.0, SVG Export Plug-In . SVG Version: 6.00 Build 0)  -->
<svg version="1.1" id="Layer_1" xmlns="http://www.w3.org/2000/svg" xmlns:xlink="http://www.w3.org/1999/xlink" x="0px" y="0px"
	 viewBox="-289 381 32 32" style="enable-background:new -289 381 32 32;" xml:space="preserve">
<style type="text/css">   
	.st0{fill:#545454;}
</style>
<path class="st0" d="M-288.7,412.7h26.7v-26.9h-26.7V412.7z M-263.8,387.7v7.4c-8.6,0-9.3,7.3-16.5,7.3c-2.9,0-6.2-3-6.4-3.1v-11.6
	H-263.8z"/>
<path class="st0" d="M-284,393.2c0,1.6,1.3,2.9,2.9,2.9s2.9-1.3,2.9-2.9s-1.3-2.9-2.9-2.9S-284,391.6-284,393.2z"/>
<path class="st0" d="M-259.3,381.3h-21.3v2h21.3v4.3h-1.7v1.7h1.7v2.6h-1.7v1.7h1.7v2.8h-1.7v1.7h1.7v2.6h-1.7v1.7h1.7v9h1.9v-30
	h-1.9V381.3z"/>
</svg>
