<?xml version="1.0" encoding="utf-8"?>
<!-- Generator: Adobe Illustrator 19.0.0, SVG Export Plug-In . SVG Version: 6.00 Build 0)  -->
<svg version="1.1" id="Layer_1" xmlns="http://www.w3.org/2000/svg" xmlns:xlink="http://www.w3.org/1999/xlink" x="0px" y="0px"
	 viewBox="-289 381 32 32" style="enable-background:new -289 381 32 32;" xml:space="preserve">
<style type="text/css">
	.st0{fill:#FF0000;}
</style>
<path class="st0" d="M-259.6,391.2c0.5,0,1-0.2,1.5-0.7c0.1-0.1,0.2-0.3,0.2-0.5c0-0.2-0.1-0.4-0.3-0.4c-1.1-0.7-1.7-1.8-1.7-3
	s0.6-2.4,1.7-3c0.2-0.1,0.3-0.2,0.3-0.4s-0.1-0.4-0.2-0.5c-0.4-0.5-0.9-0.7-1.5-0.7h-26.5c-1,0-1.9,0.9-1.9,2v5.3c0,1.1,0.9,2,1.9,2
	h2.9v1.2h-2.9c-1,0-1.9,0.9-1.9,2v5.3c0,1.1,0.9,2,1.9,2h2.9v1.2h-2.9c-1,0-1.9,0.9-1.9,2v5.2c0,1.1,0.9,2,1.9,2h26.5
	c0.5,0,1-0.2,1.5-0.7c0.1-0.1,0.2-0.3,0.2-0.5c0-0.2-0.1-0.4-0.3-0.4c-1.1-0.7-1.7-1.8-1.7-3s0.6-2.4,1.7-3c0.2-0.1,0.3-0.2,0.3-0.4
	c0-0.2-0.1-0.4-0.2-0.5c-0.3-0.4-0.9-0.7-1.5-0.7h-15.2v-1.2h15.2c0.5,0,1-0.2,1.5-0.7c0.1-0.1,0.2-0.3,0.2-0.5s-0.1-0.4-0.3-0.4
	c-1.1-0.7-1.7-1.8-1.7-3c0-1.2,0.6-2.4,1.7-3c0.2-0.1,0.3-0.2,0.3-0.4s-0.1-0.4-0.2-0.5c-0.3-0.4-0.9-0.7-1.5-0.7h-15.2v-1.2
	L-259.6,391.2L-259.6,391.2z M-286.1,390c-0.4,0-0.8-0.3-0.8-0.7v-5.3c0-0.4,0.3-0.7,0.8-0.7h26.2c-0.9,0.9-1.5,2.1-1.5,3.4
	s0.5,2.5,1.5,3.4h-15v-2c0-0.4-0.2-0.6-0.6-0.6h-7.2c-0.3,0-0.6,0.2-0.6,0.6v2L-286.1,390L-286.1,390z M-276,404.5l-1.3-1.5
	l-1.3-1.5c-0.1-0.1-0.3-0.2-0.4-0.2c-0.1,0-0.3,0.1-0.4,0.2l-1.3,1.5l-1.3,1.5v-16h6v16H-276z M-286.1,400.4c-0.4,0-0.8-0.3-0.8-0.7
	v-5.3c0-0.4,0.3-0.7,0.8-0.7h2.9v6.8C-283.2,400.4-286.1,400.4-286.1,400.4z M-259.8,404c-0.9,0.9-1.5,2.1-1.5,3.4
	c0,1.3,0.5,2.5,1.5,3.4h-26.3c-0.4,0-0.8-0.3-0.8-0.7v-5.3c0-0.4,0.3-0.7,0.8-0.7h2.9v2.1c0,0.2,0.2,0.5,0.3,0.5
	c0.2,0.1,0.5,0,0.6-0.2l2.2-2.5h2l2.2,2.5c0.1,0.1,0.1,0.1,0.2,0.1h0.1c0.1,0,0.1,0.1,0.2,0.1h0.1c0.1,0,0.1,0,0.2-0.1
	c0.2-0.1,0.3-0.3,0.3-0.5v-2.1h15.1V404z M-259.8,393.6c-0.9,0.9-1.5,2.1-1.5,3.4c0,1.3,0.5,2.5,1.5,3.4h-15v-6.7
	C-274.8,393.6-259.8,393.6-259.8,393.6z"/>
</svg>
