<?xml version="1.0" standalone="no"?><!DOCTYPE svg PUBLIC "-//W3C//DTD SVG 1.1//EN" "http://www.w3.org/Graphics/SVG/1.1/DTD/svg11.dtd"><svg t="1506435948020" class="icon" style="" viewBox="0 0 1229 1024" version="1.1" xmlns="http://www.w3.org/2000/svg" p-id="2411" xmlns:xlink="http://www.w3.org/1999/xlink" width="153.625" height="128"><defs><style type="text/css"></style></defs><path d="M978.674253 587.404744C957.153505 587.404744 935.478764 565.845499 935.478764 543.901266 935.478764 522.226524 957.153505 500.397788 978.674253 500.397788 1011.282611 500.397788 1033.111347 522.226524 1033.111347 543.901266 1033.111347 565.845499 1011.282611 587.404744 978.674253 587.404744M739.443625 587.404744C717.80738 587.404744 695.940147 565.845499 695.940147 543.901266 695.940147 522.226524 717.80738 500.397788 739.443625 500.397788 772.359972 500.397788 793.880719 522.226524 793.880719 543.901266 793.880719 565.845499 772.359972 587.404744 739.443625 587.404744M1228.8 641.841838C1228.8 467.943424 1054.824586 326.191386 859.366927 326.191386 652.436669 326.191386 489.471871 467.943424 489.471871 641.841838 489.471871 816.009743 652.436669 957.453793 859.366927 957.453793 902.677914 957.453793 946.373883 946.520177 989.877361 935.625057L1109.184686 1000.957271 1076.460831 892.237076C1163.775775 826.750868 1228.8 739.897907 1228.8 641.841838M831.840389 302.830403C845.969398 302.830403 859.90591 303.869866 873.726925 305.409812 836.113741 130.163945 648.779295 0 434.919281 0 195.842647 0 0 162.926299 0 369.856558 0 489.317878 65.139721 587.412444 174.052409 663.485783L130.548932 794.304205 282.580111 718.076872C336.978708 728.856494 380.63618 739.905608 434.919281 739.905608 448.547804 739.905608 462.09933 739.251133 475.535359 738.173169 467.027157 709.106688 462.09933 678.654249 462.09933 647.046856 462.09933 457.056005 625.256622 302.830403 831.840389 302.830403M597.999575 184.909029C630.761928 184.909029 652.436669 206.468275 652.436669 239.19213 652.436669 271.800489 630.761928 293.629225 597.999575 293.629225 565.429714 293.629225 532.705859 271.800489 532.705859 239.19213 532.705859 206.468275 565.429714 184.909029 597.999575 184.909029M293.629225 293.629225C261.020866 293.629225 228.143016 271.800489 228.143016 239.19213 228.143016 206.468275 261.020866 184.909029 293.629225 184.909029 326.237584 184.909029 347.912325 206.468275 347.912325 239.19213 347.912325 271.800489 326.237584 293.629225 293.629225 293.629225" p-id="2412" fill="#646464"></path></svg>