<?xml version="1.0" standalone="no"?><!DOCTYPE svg PUBLIC "-//W3C//DTD SVG 1.1//EN" "http://www.w3.org/Graphics/SVG/1.1/DTD/svg11.dtd"><svg t="1506436134610" class="icon" style="" viewBox="0 0 1024 1024" version="1.1" xmlns="http://www.w3.org/2000/svg" p-id="2583" xmlns:xlink="http://www.w3.org/1999/xlink" width="128" height="128"><defs><style type="text/css"></style></defs><path d="M628.306173 407.198025a203.282963 203.282963 0 0 1 22.376296 1.390617C630.581728 316.049383 530.962963 246.644938 415.920988 246.644938c-127.93679 0-232.612346 86.344691-232.612346 195.824198 0 63.209877 34.891852 115.421235 93.171358 155.749136L252.839506 667.875556l81.287901-40.454321a401.129877 401.129877 0 0 0 81.540741 11.630617c7.332346 0 14.538272 0 21.744198-0.884938a170.160988 170.160988 0 0 1-7.205926-48.292346c0.25284-100.882963 88.114568-182.676543 198.099753-182.676543z m-125.155556-62.577778a28.823704 28.823704 0 1 1 0 57.647407 32.616296 32.616296 0 0 1-35.397531-28.823703 32.489877 32.489877 0 0 1 35.397531-28.697284z m-162.828642 57.773827a32.616296 32.616296 0 0 1-35.018271-28.823704 32.616296 32.616296 0 0 1 35.018271-28.823703 28.823704 28.823704 0 1 1 0 57.647407z m500.369383 184.57284c0-92.16-93.044938-167.379753-197.594074-167.379754-110.743704 0-197.846914 75.219753-197.846914 167.379754s87.22963 167.379753 197.846914 167.379753a294.810864 294.810864 0 0 0 69.783704-11.630618l63.209876 34.639013-17.445926-57.647408c47.280988-34.639012 82.04642-80.655802 82.04642-132.74074z m-261.815309-28.823704a23.134815 23.134815 0 1 1 0-46.14321 26.548148 26.548148 0 0 1 29.076544 23.008395 26.421728 26.421728 0 0 1-29.076544 23.134815z m127.936791 0a23.008395 23.008395 0 1 1 0-46.14321 26.674568 26.674568 0 0 1 29.076543 23.008395 26.548148 26.548148 0 0 1-29.076543 23.134815z" fill="#76D061" p-id="2584"></path></svg>